{"title":"I julia ksanaxtipa! To casting tou Giatrou - Sirina","uid":7520460,"size":1202258654,"categoryP":"porn","categoryS":"movies","magnet":"?xt=urn:btih:4b3e0d2184393dbb8390d5dd85e39f31ab05c8f3&amp;dn=I+julia+ksanaxtipa%21+To+casting+tou+Giatrou+-+Sirina+&amp;tr=udp%3A%2F%2Ftracker.openbittorrent.com%3A80&amp;tr=udp%3A%2F%2Fopen.demonii.com%3A1337&amp;tr=udp%3A%2F%2Ftracker.coppersurfer.tk%3A6969&amp;tr=udp%3A%2F%2Fexodus.desync.com%3A6969","seeders":8,"leechers":0,"uploader":"AnorthosisFamagusta","files":1,"time":1344611070,"description":"General\nComplete name                  : F:torrentepisrofiJul.2012.doct.avi\nFormat                         : AVI\nFormat/Info                    : Audio Video Interleave\nFile size                      : 1.12 GiB\nDuration                       : 1h 34mn\nOverall bit rate               : 1 699 Kbps\n\nVideo\nID                             : 0\nFormat                         : MPEG-4 Visual\nFormat profile                 : Advanced Simple@L5\nFormat settings, BVOP          : No\nFormat settings, QPel          : No\nFormat settings, GMC           : No warppoints\nFormat settings, Matrix        : Default (MPEG)\nCodec ID                       : XVID\nCodec ID/Hint                  : XviD\nDuration                       : 1h 34mn\nBit rate                       : 1 497 Kbps\nWidth                          : 640 pixels\nHeight                         : 480 pixels\nDisplay aspect ratio           : 4:3\nFrame rate                     : 25.000 fps\nColor space                    : YUV\nChroma subsampling             : 4:2:0\nBit depth                      : 8 bits\nScan type                      : Progressive\nCompression mode               : Lossy\nBits/(Pixel*Frame)             : 0.195\nStream size                    : 1 010 MiB (88%)\nWriting library                : XviD 62\n\nAudio\nID                             : 1\nFormat                         : MPEG Audio\nFormat version                 : Version 1\nFormat profile                 : Layer 3\nCodec ID                       : 55\nCodec ID/Hint                  : MP3\nDuration                       : 1h 34mn\nBit rate mode                  : Constant\nBit rate                       : 192 Kbps\nChannel(s)                     : 2 channels\nSampling rate                  : 44.1 KHz\nCompression mode               : Lossy\nStream size                    : 130 MiB (11%)\nAlignment                      : Split accross interleaves\nInterleave, duration           : 40 ms (1.00 video frame)\nWriting library                : LAMELAME_MAJOR_VERSI\n\n","torrent":{"xt":"urn:btih:4b3e0d2184393dbb8390d5dd85e39f31ab05c8f3","amp;dn":"I+julia+ksanaxtipa%21+To+casting+tou+Giatrou+-+Sirina+","amp;tr":["udp%3A%2F%2Ftracker.openbittorrent.com%3A80","udp%3A%2F%2Fopen.demonii.com%3A1337","udp%3A%2F%2Ftracker.coppersurfer.tk%3A6969","udp%3A%2F%2Fexodus.desync.com%3A6969"],"infoHash":"4b3e0d2184393dbb8390d5dd85e39f31ab05c8f3","infoHashBuffer":{"type":"Buffer","data":[75,62,13,33,132,57,61,187,131,144,213,221,133,227,159,49,171,5,200,243]},"announce":[],"urlList":[]}}